:version 1.10
:name ASF
:units
  mass 1
  length 1
  angle deg
:documentation
  ASF file generated by Kaydara
:root
  axis xyz
  order  tx ty tz rx ry rz
  position 0 0 0
  orientation 0 0 0
:bonedata
  begin
    id 1
    name RightUpLegDummy
    direction -0.718183 -0.695806 0.00816078
    length 4.904
    axis 0 0 0 xyz
  end
  begin
    id 2
    name RightUpLeg
    direction -0.0736652 -0.994202 0.0783343
    length 17.4976
    axis -2.72909 -3.00389 -4.00133 xyz
    dof rx ry rz
  end
  begin
    id 3
    name RightLeg
    direction -0.0389037 -0.994596 -0.0962598
    length 16.5821
    axis 3.95836 -18.5909 -4.46993 xyz
    dof rx ry rz
  end
  begin
    id 4
    name RightFoot
    direction -0.311643 -0.412678 0.855906
    length 3.77069
    axis -1.99483 -18.8351 -3.27644 xyz
    dof rx ry rz
  end
  begin
    id 5
    name RightToes
    direction -0.317852 0.0389852 0.947339
    length 3.85082
    axis -2.00228 -18.1713 -3.25211 xyz
    dof rx ry rz
  end
  begin
    id 6
    name SpineDummy
    direction 8.3039e-015 1 4.44677e-016
    length 4.6813
    axis 0 0 0 xyz
  end
  begin
    id 7
    name Spine
    direction -0.000262373 0.999988 0.00493267
    length 10.1015
    axis -0.00246081 0.00062579 0.0150362 xyz
    dof rx ry rz
  end
  begin
    id 8
    name Spine1
    direction 0 0 0
    length 0
    axis -0.00349562 0.000650293 0.0196666 xyz
    dof rx ry rz
  end
  begin
    id 9
    name HEadDummy
    direction -0.000343232 0.999999 0.00123745
    length 3.43865
    axis -0.00349562 0.000650293 0.0196666 xyz
  end
  begin
    id 10
    name HEad
    direction -0.0461221 0.980933 0.188796
    length 5.12695
    axis -0.00351404 -7.04812 0.0199272 xyz
    dof rx ry rz
  end
  begin
    id 11
    name LeftShoulder1Dummy
    direction 0.998904 -0.0399089 -0.0244534
    length 3.5433
    axis -0.00349562 0.000650293 0.0196666 xyz
  end
  begin
    id 12
    name LeftShoulder1
    direction 0.99951 1.64443e-005 0.0312999
    length 4.05031
    axis -0.00349562 0.000650293 0.0196666 xyz
    dof rx ry rz
  end
  begin
    id 13
    name LeftArm
    direction 0.984791 0.0515299 0.165927
    length 12.9126
    axis -64.823 -10.7743 5.20463 xyz
    dof rx ry rz
  end
  begin
    id 14
    name LeftForeArm
    direction 0.984968 0.0534808 0.16425
    length 10.8596
    axis -30.0462 -7.70601 1.87451 xyz
    dof rx ry rz
  end
  begin
    id 15
    name LeftHand
    direction 0.975871 0.0289682 0.216418
    length 6.62295
    axis -20.1348 -6.98077 1.86072 xyz
    dof rx ry rz
  end
  begin
    id 16
    name RightShoulderDummy
    direction -0.998877 -0.0405946 -0.0244307
    length 3.5433
    axis -0.00349562 0.000650293 0.0196666 xyz
  end
  begin
    id 17
    name RightShoulder
    direction -0.998933 -0.0249743 -0.0388558
    length 4.05031
    axis -0.0205316 -4.02113 1.41395 xyz
    dof rx ry rz
  end
  begin
    id 18
    name RightArm
    direction -0.997559 0.068664 0.0127103
    length 12.9638
    axis -67.3882 1.84188 -6.15987 xyz
    dof rx ry rz
  end
  begin
    id 19
    name RightForeArm
    direction -0.991508 0.0912848 0.0926241
    length 10.8312
    axis -22.1975 3.41087 -4.28711 xyz
    dof rx ry rz
  end
  begin
    id 20
    name RightHand
    direction -0.989262 0.0600788 0.133232
    length 6.57864
    axis -12.2911 2.17515 -4.39675 xyz
    dof rx ry rz
  end
  begin
    id 21
    name LeftUpLegDummy
    direction 0.718183 -0.695806 0.00816078
    length 4.904
    axis 0 0 0 xyz
  end
  begin
    id 22
    name LeftUpLeg
    direction 0.0831398 -0.99469 0.0606531
    length 17.4976
    axis -1.71016 2.29552 4.63832 xyz
    dof rx ry rz
  end
  begin
    id 23
    name LeftLeg
    direction 0.0498442 -0.991778 -0.117862
    length 16.5821
    axis 5.13757 15.5727 5.13348 xyz
    dof rx ry rz
  end
  begin
    id 24
    name LeftFoot
    direction 0.269026 -0.433896 0.85986
    length 3.77069
    axis -0.576502 15.6961 4.10267 xyz
    dof rx ry rz
  end
  begin
    id 25
    name LeftToes
    direction 0.277311 0.0251143 0.960452
    length 3.85048
    axis -0.576502 15.6961 4.10267 xyz
    dof rx ry rz
  end
:hierarchy
  begin
    root RightUpLegDummy SpineDummy LeftUpLegDummy
    RightUpLegDummy RightUpLeg
    RightUpLeg RightLeg
    RightLeg RightFoot
    RightFoot RightToes
    SpineDummy Spine
    Spine Spine1
    Spine1 HEadDummy LeftShoulder1Dummy RightShoulderDummy
    HEadDummy HEad
    LeftShoulder1Dummy LeftShoulder1
    LeftShoulder1 LeftArm
    LeftArm LeftForeArm
    LeftForeArm LeftHand
    RightShoulderDummy RightShoulder
    RightShoulder RightArm
    RightArm RightForeArm
    RightForeArm RightHand
    LeftUpLegDummy LeftUpLeg
    LeftUpLeg LeftLeg
    LeftLeg LeftFoot
    LeftFoot LeftToes
  end

:SAMPLES-PER-SECOND 30
:FULLY-SPECIFIED
:DEGREES
1
root  -5.0873 40.8044 107.348 179.063 8.06064 179.626
RightUpLeg  2.13636 -1.15402 1.72195
RightLeg  1.30762 -13.0199 1.424
RightFoot  -2.37711 0.290985 -3.17166
RightToes  3.97569e-016 -3.18055e-015 -2.98177e-016
Spine  -0.258051 0.452187 -1.10854
Spine1  8.35752 0.212204 1.23637
HEad  -9.03862 2.40324 -2.63769
LeftShoulder1  -3.88251e-019 9.70628e-020 -3.87848e-018
LeftArm  -27.7866 54.2848 -67.8966
LeftForeArm  1.73619 -11.8511 -1.66937
LeftHand  -0.454241 -0.536446 9.64181
RightShoulder  8.72508 11.0938 40.1078
RightArm  7.52722 -42.4835 10.8994
RightForeArm  -5.72295 18.3756 -9.03475
RightHand  -0.683766 -0.694084 -16.4164
LeftUpLeg  1.14283 -2.24553 -3.52221
LeftLeg  0.77561 7.6246 0.7761
LeftFoot  -1.02488 -0.198905 1.87602
LeftToes  5.30048e-011 -3.04284e-011 -3.73785e-011
2
root  -5.0872 40.8044 107.341 179.068 8.05846 179.621
RightUpLeg  2.15302 -1.12509 1.73195
RightLeg  1.26976 -13.0513 1.40825
RightFoot  -2.35247 0.293165 -3.19408
RightToes  3.97569e-016 -3.18055e-015 -2.98177e-016
Spine  -0.113248 0.433409 -1.05164
Spine1  8.22617 0.208569 1.16434
HEad  -8.96657 2.27915 -2.6158
LeftShoulder1  -3.88251e-019 9.70628e-020 -3.87848e-018
LeftArm  -27.7062 54.1809 -67.927
LeftForeArm  1.72659 -11.8473 -1.70619
LeftHand  -0.459742 -0.504858 9.82341
RightShoulder  8.76556 11.1151 40.2499
RightArm  7.68415 -42.4059 10.7636
RightForeArm  -5.75317 18.4017 -9.03635
RightHand  -0.678511 -0.71022 -16.3447
LeftUpLeg  1.15239 -2.24319 -3.52843
LeftLeg  0.76456 7.64537 0.766297
LeftFoot  -1.00927 -0.202176 1.91041
LeftToes  5.30048e-011 -3.04284e-011 -3.73785e-011
3
root  -5.08346 40.8044 107.326 179.139 8.08037 179.652
RightUpLeg  2.13752 -1.03649 1.80758
RightLeg  1.19033 -13.096 1.3888
RightFoot  -2.31759 0.292802 -3.19035
RightToes  3.97569e-016 -3.18055e-015 -2.98177e-016
Spine  0.1107 0.401845 -0.930593
Spine1  7.95894 0.192869 1.08521
HEad  -8.81831 2.12356 -2.60361
LeftShoulder1  -3.88251e-019 9.70628e-020 -3.87848e-018
LeftArm  -27.6052 54.0466 -67.9918
LeftForeArm  1.71134 -11.8721 -1.7559
LeftHand  -0.470198 -0.492481 10.0644
RightShoulder  8.81276 11.1397 40.4157
RightArm  7.66395 -42.2994 10.6708
RightForeArm  -5.57122 18.3163 -8.98258
RightHand  -0.664439 -0.801503 -16.3137
LeftUpLeg  1.13112 -2.16613 -3.45547
LeftLeg  0.731421 7.57952 0.689183
LeftFoot  -1.07109 -0.204959 1.93968
LeftToes  5.30048e-011 -3.04284e-011 -3.73785e-011
4
root  -5.06481 40.8037 107.304 179.206 8.2558 179.703
RightUpLeg  2.11525 -0.925158 1.92044
RightLeg  1.16127 -13.0148 1.35803
RightFoot  -2.38523 0.284341 -3.10333
RightToes  3.97569e-016 -3.18055e-015 -2.98177e-016
Spine  0.371631 0.409931 -0.875306
Spine1  7.64423 0.188935 1.12379
HEad  -8.60656 2.17198 -2.58529
LeftShoulder1  -3.88251e-019 9.70628e-020 -3.87848e-018
LeftArm  -27.6078 54.0212 -68.1114
LeftForeArm  1.76247 -11.9756 -1.80107
LeftHand  -0.47783 -0.611317 10.0172
RightShoulder  8.80115 11.1341 40.3738
RightArm  7.30057 -42.2757 10.8441
RightForeArm  -5.00921 18.0522 -8.84319
RightHand  -0.670131 -0.771927 -16.3516
LeftUpLeg  1.15773 -1.94863 -3.27157
LeftLeg  0.724358 7.46558 0.514282
LeftFoot  -1.20749 -0.192536 1.8203
LeftToes  5.30048e-011 -3.04284e-011 -3.73785e-011
5
root  -5.02942 40.7982 107.275 179.208 8.66179 179.72
RightUpLeg  2.01816 -0.837488 2.0027
RightLeg  1.41405 -12.7305 1.20347
RightFoot  -2.70351 0.252279 -2.77372
RightToes  3.97569e-016 -3.18055e-015 -2.98177e-016
Spine  0.663626 0.51673 -0.934384
Spine1  7.37098 0.268114 1.23425
HEad  -8.33945 2.39587 -2.52579
LeftShoulder1  -3.88251e-019 9.70628e-020 -3.87848e-018
LeftArm  -27.6399 54.0686 -68.2415
LeftForeArm  1.85222 -12.1449 -1.86015
LeftHand  -0.473463 -0.687164 9.79751
RightShoulder  8.75768 11.1128 40.2181
RightArm  7.03913 -42.3104 11.0698
RightForeArm  -4.45949 17.7966 -8.69099
RightHand  -0.695001 -0.573674 -16.283
LeftUpLeg  1.26698 -1.64801 -3.05977
LeftLeg  0.823481 7.51186 0.315677
LeftFoot  -1.42701 -0.16291 1.55751
LeftToes  5.30048e-011 -3.04284e-011 -3.73785e-011
6
root  -4.9872 40.7831 107.243 179.205 9.20146 179.677
RightUpLeg  1.68332 -0.794064 2.02033
RightLeg  2.11351 -12.3075 0.837777
RightFoot  -3.29523 0.188172 -2.11681
RightToes  3.97569e-016 -3.18055e-015 -2.98177e-016
Spine  0.952737 0.687455 -1.00616
Spine1  7.1326 0.438496 1.23164
HEad  -8.0632 2.58938 -2.42491
LeftShoulder1  -3.88251e-019 9.70628e-020 -3.87848e-018
LeftArm  -27.5485 54.1308 -68.289
LeftForeArm  1.82353 -12.3521 -1.9273
LeftHand  -0.463757 -0.561756 9.81567
RightShoulder  8.75707 11.1129 40.2149
RightArm  7.22383 -42.3227 11.0432
RightForeArm  -4.4073 17.7348 -8.60307
RightHand  -0.697644 -0.498785 -16.1021
LeftUpLeg  1.31435 -1.42513 -2.93923
LeftLeg  1.08986 7.76954 0.244353
LeftFoot  -1.80605 -0.125792 1.22375
LeftToes  5.30048e-011 -3.04284e-011 -3.73785e-011
7
root  -4.94196 40.764 107.204 179.239 9.69914 179.589
RightUpLeg  1.20205 -0.806809 1.98545
RightLeg  3.04143 -11.8385 0.393674
RightFoot  -3.96726 0.12977 -1.52932
RightToes  3.97569e-016 -3.18055e-015 -2.98177e-016
Spine  1.24984 0.799681 -1.0117
Spine1  6.87687 0.594707 1.03097
HEad  -7.86169 2.72495 -2.28208
LeftShoulder1  -3.88251e-019 9.70628e-020 -3.87848e-018
LeftArm  -27.3144 54.2555 -68.1769
LeftForeArm  1.66772 -12.5591 -1.95834
LeftHand  -0.459705 -0.43876 10.0141
RightShoulder  8.80692 11.1376 40.3931
RightArm  7.57617 -42.3426 10.8838
RightForeArm  -4.64421 17.7968 -8.58092
RightHand  -0.681151 -0.588165 -16.0051
LeftUpLeg  1.22404 -1.35922 -2.94276
LeftLeg  1.50532 8.10236 0.36401
LeftFoot  -2.24994 -0.0850465 0.832409
LeftToes  5.30048e-011 -3.04284e-011 -3.73785e-011
8
root  -4.882 40.737 107.143 179.238 10.1159 179.532
RightUpLeg  0.819189 -0.860374 1.99539
RightLeg  3.97472 -11.355 -0.00682929
RightFoot  -4.60436 0.122976 -1.52408
RightToes  3.97569e-016 -3.18055e-015 -2.98177e-016
Spine  1.57228 0.793638 -0.930638
Spine1  6.66241 0.64563 0.807627
HEad  -7.7995 2.97042 -2.11206
LeftShoulder1  -3.88251e-019 9.70628e-020 -3.87848e-018
LeftArm  -27.0587 54.4742 -67.9375
LeftForeArm  1.59038 -12.6498 -1.94904
LeftHand  -0.463598 -0.509981 9.99669
RightShoulder  8.8489 11.1582 40.543
RightArm  7.7219 -42.4689 10.9171
RightForeArm  -4.527 17.8348 -8.58866
RightHand  -0.69701 -0.451135 -15.9408
LeftUpLeg  1.24828 -1.34884 -2.9396
LeftLeg  1.79274 8.49438 0.501214
LeftFoot  -2.63623 -0.0590311 0.567592
LeftToes  5.30048e-011 -3.04284e-011 -3.73785e-011
9
root  -4.78718 40.7098 107.052 179.19 10.5521 179.509
RightUpLeg  0.697858 -0.866074 2.09374
RightLeg  4.62792 -10.894 -0.272322
RightFoot  -5.17048 0.146715 -1.9359
RightToes  3.97569e-016 -3.18055e-015 -2.98177e-016
Spine  1.83217 0.741553 -0.954557
Spine1  6.569 0.609952 0.772676
HEad  -7.85454 3.38373 -2.01881
LeftShoulder1  -3.88251e-019 9.70628e-020 -3.87848e-018
LeftArm  -26.8851 54.7354 -67.7113
LeftForeArm  1.66154 -12.4937 -1.96769
LeftHand  -0.468455 -0.573435 9.8802
RightShoulder  8.85111 11.1593 40.5508
RightArm  7.79731 -42.707 11.1353
RightForeArm  -4.0571 17.8664 -8.61208
RightHand  -0.731099 -0.11026 -15.6706
LeftUpLeg  1.33193 -1.26026 -2.83222
LeftLeg  2.21662 8.88188 0.661541
LeftFoot  -2.98541 -0.0389652 0.351041
LeftToes  5.30048e-011 -3.04284e-011 -3.73785e-011
10
root  -4.65966 40.6764 106.931 179.243 11.0245 179.543
RightUpLeg  0.598892 -0.790851 2.3044
RightLeg  5.14524 -10.5269 -0.50079
RightFoot  -5.81175 0.139286 -1.94662
RightToes  3.97569e-016 -3.18055e-015 -2.98177e-016
Spine  1.94395 0.697727 -1.06493
Spine1  6.4925 0.529741 1.00776
HEad  -7.92309 3.85801 -2.1003
LeftShoulder1  -3.88251e-019 9.70628e-020 -3.87848e-018
LeftArm  -26.8517 55.0345 -67.6254
LeftForeArm  1.75734 -12.1089 -2.03941
LeftHand  -0.471235 -0.504887 10.0639
RightShoulder  8.82922 11.1483 40.4733
RightArm  8.0725 -42.9902 11.2907
RightForeArm  -3.89284 17.9247 -8.60931
RightHand  -0.705939 -0.209929 -15.4176
LeftUpLeg  1.26843 -1.13288 -2.6189
LeftLeg  2.86111 9.22091 0.91643
LeftFoot  -3.56623 -0.0139185 0.0501292
LeftToes  5.30048e-011 -3.04284e-011 -3.73785e-011
